<mxfile host="Electron" modified="2023-08-13T04:25:57.346Z" agent="Mozilla/5.0 (Windows NT 10.0; Win64; x64) AppleWebKit/537.36 (KHTML, like Gecko) draw.io/21.6.5 Chrome/114.0.5735.243 Electron/25.3.1 Safari/537.36" etag="naVhpa6EppMuEmFLZ9v4" version="21.6.5" type="device">
  <diagram name="ページ1" id="1nZlSNN_GvN0w4mHoksS">
    <mxGraphModel dx="2074" dy="1197" grid="0" gridSize="10" guides="1" tooltips="1" connect="1" arrows="1" fold="1" page="0" pageScale="1" pageWidth="827" pageHeight="1169" math="0" shadow="0">
      <root>
        <mxCell id="0" />
        <mxCell id="1" parent="0" />
        <mxCell id="mLUr6H7fDkJ77cfX74YB-7" value="VPC" style="sketch=0;outlineConnect=0;gradientColor=none;html=1;whiteSpace=wrap;fontSize=12;fontStyle=0;shape=mxgraph.aws4.group;grIcon=mxgraph.aws4.group_vpc;strokeColor=#879196;fillColor=none;verticalAlign=top;align=left;spacingLeft=30;fontColor=#879196;dashed=0;" vertex="1" parent="1">
          <mxGeometry x="50" y="280" width="780" height="550" as="geometry" />
        </mxCell>
        <mxCell id="mLUr6H7fDkJ77cfX74YB-24" style="edgeStyle=orthogonalEdgeStyle;rounded=0;orthogonalLoop=1;jettySize=auto;html=1;strokeWidth=3;strokeColor=#5C5C5C;" edge="1" parent="1" source="mLUr6H7fDkJ77cfX74YB-1" target="mLUr6H7fDkJ77cfX74YB-22">
          <mxGeometry relative="1" as="geometry" />
        </mxCell>
        <mxCell id="mLUr6H7fDkJ77cfX74YB-1" value="VPCEndpoint" style="sketch=0;outlineConnect=0;fontColor=#232F3E;gradientColor=none;fillColor=#4D27AA;strokeColor=none;dashed=0;verticalLabelPosition=bottom;verticalAlign=top;align=center;html=1;fontSize=12;fontStyle=0;aspect=fixed;pointerEvents=1;shape=mxgraph.aws4.endpoints;" vertex="1" parent="1">
          <mxGeometry x="700" y="443" width="50" height="50" as="geometry" />
        </mxCell>
        <mxCell id="mLUr6H7fDkJ77cfX74YB-6" value="Private subnet" style="points=[[0,0],[0.25,0],[0.5,0],[0.75,0],[1,0],[1,0.25],[1,0.5],[1,0.75],[1,1],[0.75,1],[0.5,1],[0.25,1],[0,1],[0,0.75],[0,0.5],[0,0.25]];outlineConnect=0;gradientColor=none;html=1;whiteSpace=wrap;fontSize=12;fontStyle=0;container=1;pointerEvents=0;collapsible=0;recursiveResize=0;shape=mxgraph.aws4.group;grIcon=mxgraph.aws4.group_security_group;grStroke=0;strokeColor=#147EBA;fillColor=#E6F2F8;verticalAlign=top;align=left;spacingLeft=30;fontColor=#147EBA;dashed=0;" vertex="1" parent="1">
          <mxGeometry x="70" y="320" width="590" height="480" as="geometry" />
        </mxCell>
        <mxCell id="mLUr6H7fDkJ77cfX74YB-10" value="Task" style="sketch=0;outlineConnect=0;fontColor=#232F3E;gradientColor=none;fillColor=#D45B07;strokeColor=none;dashed=0;verticalLabelPosition=bottom;verticalAlign=top;align=center;html=1;fontSize=12;fontStyle=0;aspect=fixed;pointerEvents=1;shape=mxgraph.aws4.ecs_task;" vertex="1" parent="mLUr6H7fDkJ77cfX74YB-6">
          <mxGeometry x="183.44" y="60" width="55.5" height="72" as="geometry" />
        </mxCell>
        <mxCell id="mLUr6H7fDkJ77cfX74YB-16" value="TaskDefinition" style="sketch=0;outlineConnect=0;fontColor=#232F3E;gradientColor=none;fillColor=#e9640c;strokeColor=none;dashed=0;verticalLabelPosition=bottom;verticalAlign=top;align=center;html=1;fontSize=12;fontStyle=0;aspect=fixed;pointerEvents=1;shape=mxgraph.aws4.document;" vertex="1" parent="mLUr6H7fDkJ77cfX74YB-6">
          <mxGeometry x="190" y="290" width="42.38" height="58" as="geometry" />
        </mxCell>
        <mxCell id="mLUr6H7fDkJ77cfX74YB-42" value="Role" style="sketch=0;outlineConnect=0;fontColor=#232F3E;gradientColor=none;fillColor=#BF0816;strokeColor=none;dashed=0;verticalLabelPosition=bottom;verticalAlign=top;align=center;html=1;fontSize=12;fontStyle=0;aspect=fixed;pointerEvents=1;shape=mxgraph.aws4.role;" vertex="1" parent="mLUr6H7fDkJ77cfX74YB-6">
          <mxGeometry x="220" y="20" width="78" height="44" as="geometry" />
        </mxCell>
        <mxCell id="mLUr6H7fDkJ77cfX74YB-19" style="edgeStyle=orthogonalEdgeStyle;rounded=0;orthogonalLoop=1;jettySize=auto;html=1;strokeWidth=3;strokeColor=#FF8000;" edge="1" parent="1" source="mLUr6H7fDkJ77cfX74YB-8" target="mLUr6H7fDkJ77cfX74YB-11">
          <mxGeometry relative="1" as="geometry" />
        </mxCell>
        <mxCell id="mLUr6H7fDkJ77cfX74YB-47" value="&lt;div style=&quot;font-family: Consolas, &amp;quot;Courier New&amp;quot;, monospace; font-size: 12px; line-height: 16px;&quot;&gt;.ecr.dkr&lt;/div&gt;" style="edgeLabel;html=1;align=center;verticalAlign=middle;resizable=0;points=[];" vertex="1" connectable="0" parent="mLUr6H7fDkJ77cfX74YB-19">
          <mxGeometry x="0.6009" relative="1" as="geometry">
            <mxPoint as="offset" />
          </mxGeometry>
        </mxCell>
        <mxCell id="mLUr6H7fDkJ77cfX74YB-29" style="edgeStyle=orthogonalEdgeStyle;rounded=0;orthogonalLoop=1;jettySize=auto;html=1;strokeWidth=3;strokeColor=#FF8000;" edge="1" parent="1" source="mLUr6H7fDkJ77cfX74YB-8" target="mLUr6H7fDkJ77cfX74YB-12">
          <mxGeometry relative="1" as="geometry" />
        </mxCell>
        <mxCell id="mLUr6H7fDkJ77cfX74YB-49" value="&lt;div style=&quot;font-family: Consolas, &amp;quot;Courier New&amp;quot;, monospace; font-size: 12px; line-height: 16px;&quot;&gt;.ecr.api&lt;/div&gt;" style="edgeLabel;html=1;align=center;verticalAlign=middle;resizable=0;points=[];" vertex="1" connectable="0" parent="mLUr6H7fDkJ77cfX74YB-29">
          <mxGeometry x="0.5416" y="4" relative="1" as="geometry">
            <mxPoint y="4" as="offset" />
          </mxGeometry>
        </mxCell>
        <mxCell id="mLUr6H7fDkJ77cfX74YB-31" style="edgeStyle=orthogonalEdgeStyle;rounded=0;orthogonalLoop=1;jettySize=auto;html=1;strokeWidth=3;strokeColor=#FF8000;" edge="1" parent="1" source="mLUr6H7fDkJ77cfX74YB-8" target="mLUr6H7fDkJ77cfX74YB-13">
          <mxGeometry relative="1" as="geometry">
            <Array as="points">
              <mxPoint x="384" y="582" />
              <mxPoint x="384" y="663" />
            </Array>
          </mxGeometry>
        </mxCell>
        <mxCell id="mLUr6H7fDkJ77cfX74YB-48" value="&lt;div style=&quot;font-family: Consolas, &amp;quot;Courier New&amp;quot;, monospace; font-size: 12px; line-height: 16px;&quot;&gt;.logs&lt;/div&gt;" style="edgeLabel;html=1;align=center;verticalAlign=middle;resizable=0;points=[];" vertex="1" connectable="0" parent="mLUr6H7fDkJ77cfX74YB-31">
          <mxGeometry x="0.6051" y="1" relative="1" as="geometry">
            <mxPoint y="1" as="offset" />
          </mxGeometry>
        </mxCell>
        <mxCell id="mLUr6H7fDkJ77cfX74YB-33" style="edgeStyle=orthogonalEdgeStyle;rounded=0;orthogonalLoop=1;jettySize=auto;html=1;strokeWidth=3;strokeColor=#FF8000;" edge="1" parent="1" source="mLUr6H7fDkJ77cfX74YB-8" target="mLUr6H7fDkJ77cfX74YB-14">
          <mxGeometry relative="1" as="geometry">
            <Array as="points">
              <mxPoint x="384" y="582" />
              <mxPoint x="384" y="733" />
            </Array>
          </mxGeometry>
        </mxCell>
        <mxCell id="mLUr6H7fDkJ77cfX74YB-36" value="② faragate services..." style="edgeLabel;html=1;align=center;verticalAlign=middle;resizable=0;points=[];labelBackgroundColor=default;" vertex="1" connectable="0" parent="mLUr6H7fDkJ77cfX74YB-33">
          <mxGeometry x="-0.726" y="-1" relative="1" as="geometry">
            <mxPoint x="12" y="-8" as="offset" />
          </mxGeometry>
        </mxCell>
        <mxCell id="mLUr6H7fDkJ77cfX74YB-50" value="&lt;div style=&quot;font-family: Consolas, &amp;quot;Courier New&amp;quot;, monospace; font-size: 12px; line-height: 16px;&quot;&gt;.secretsmanager&lt;/div&gt;" style="edgeLabel;html=1;align=center;verticalAlign=middle;resizable=0;points=[];" vertex="1" connectable="0" parent="mLUr6H7fDkJ77cfX74YB-33">
          <mxGeometry x="0.6356" y="2" relative="1" as="geometry">
            <mxPoint as="offset" />
          </mxGeometry>
        </mxCell>
        <mxCell id="mLUr6H7fDkJ77cfX74YB-37" style="edgeStyle=orthogonalEdgeStyle;rounded=0;orthogonalLoop=1;jettySize=auto;html=1;strokeWidth=3;strokeColor=#FF8000;" edge="1" parent="1" source="mLUr6H7fDkJ77cfX74YB-8" target="mLUr6H7fDkJ77cfX74YB-1">
          <mxGeometry relative="1" as="geometry">
            <Array as="points">
              <mxPoint x="384" y="582" />
              <mxPoint x="384" y="468" />
            </Array>
          </mxGeometry>
        </mxCell>
        <mxCell id="mLUr6H7fDkJ77cfX74YB-51" value="&lt;div style=&quot;font-family: Consolas, &amp;quot;Courier New&amp;quot;, monospace; font-size: 12px; line-height: 16px;&quot;&gt;.s3&lt;/div&gt;" style="edgeLabel;html=1;align=center;verticalAlign=middle;resizable=0;points=[];" vertex="1" connectable="0" parent="mLUr6H7fDkJ77cfX74YB-37">
          <mxGeometry x="0.2821" y="1" relative="1" as="geometry">
            <mxPoint y="1" as="offset" />
          </mxGeometry>
        </mxCell>
        <mxCell id="mLUr6H7fDkJ77cfX74YB-40" style="edgeStyle=orthogonalEdgeStyle;rounded=0;orthogonalLoop=1;jettySize=auto;html=1;fillColor=#dae8fc;strokeColor=#6c8ebf;strokeWidth=3;" edge="1" parent="1" source="mLUr6H7fDkJ77cfX74YB-8" target="mLUr6H7fDkJ77cfX74YB-10">
          <mxGeometry relative="1" as="geometry">
            <Array as="points">
              <mxPoint x="160" y="440" />
            </Array>
          </mxGeometry>
        </mxCell>
        <mxCell id="mLUr6H7fDkJ77cfX74YB-41" value="③ runTask" style="edgeLabel;html=1;align=center;verticalAlign=middle;resizable=0;points=[];" vertex="1" connectable="0" parent="mLUr6H7fDkJ77cfX74YB-40">
          <mxGeometry x="0.3922" relative="1" as="geometry">
            <mxPoint as="offset" />
          </mxGeometry>
        </mxCell>
        <mxCell id="mLUr6H7fDkJ77cfX74YB-8" value="Fargate" style="sketch=0;points=[[0,0,0],[0.25,0,0],[0.5,0,0],[0.75,0,0],[1,0,0],[0,1,0],[0.25,1,0],[0.5,1,0],[0.75,1,0],[1,1,0],[0,0.25,0],[0,0.5,0],[0,0.75,0],[1,0.25,0],[1,0.5,0],[1,0.75,0]];outlineConnect=0;fontColor=#232F3E;gradientColor=#F78E04;gradientDirection=north;fillColor=#D05C17;strokeColor=#ffffff;dashed=0;verticalLabelPosition=bottom;verticalAlign=top;align=center;html=1;fontSize=12;fontStyle=0;aspect=fixed;shape=mxgraph.aws4.resourceIcon;resIcon=mxgraph.aws4.fargate;" vertex="1" parent="1">
          <mxGeometry x="120" y="543" width="78" height="78" as="geometry" />
        </mxCell>
        <mxCell id="mLUr6H7fDkJ77cfX74YB-25" style="edgeStyle=orthogonalEdgeStyle;rounded=0;orthogonalLoop=1;jettySize=auto;html=1;strokeWidth=3;strokeColor=#5C5C5C;" edge="1" parent="1" source="mLUr6H7fDkJ77cfX74YB-11" target="mLUr6H7fDkJ77cfX74YB-20">
          <mxGeometry relative="1" as="geometry" />
        </mxCell>
        <mxCell id="mLUr6H7fDkJ77cfX74YB-46" value="Text" style="edgeLabel;html=1;align=center;verticalAlign=middle;resizable=0;points=[];" vertex="1" connectable="0" parent="mLUr6H7fDkJ77cfX74YB-25">
          <mxGeometry x="-0.7533" relative="1" as="geometry">
            <mxPoint as="offset" />
          </mxGeometry>
        </mxCell>
        <mxCell id="mLUr6H7fDkJ77cfX74YB-11" value="VPCEndpoint" style="sketch=0;outlineConnect=0;fontColor=#232F3E;gradientColor=none;fillColor=#4D27AA;strokeColor=none;dashed=0;verticalLabelPosition=bottom;verticalAlign=top;align=center;html=1;fontSize=12;fontStyle=0;aspect=fixed;pointerEvents=1;shape=mxgraph.aws4.endpoints;" vertex="1" parent="1">
          <mxGeometry x="570" y="493" width="50" height="50" as="geometry" />
        </mxCell>
        <mxCell id="mLUr6H7fDkJ77cfX74YB-26" style="edgeStyle=orthogonalEdgeStyle;rounded=0;orthogonalLoop=1;jettySize=auto;html=1;entryX=0;entryY=0.5;entryDx=0;entryDy=0;entryPerimeter=0;strokeWidth=3;strokeColor=#5C5C5C;" edge="1" parent="1" source="mLUr6H7fDkJ77cfX74YB-12" target="mLUr6H7fDkJ77cfX74YB-20">
          <mxGeometry relative="1" as="geometry" />
        </mxCell>
        <mxCell id="mLUr6H7fDkJ77cfX74YB-12" value="VPCEndpoint" style="sketch=0;outlineConnect=0;fontColor=#232F3E;gradientColor=none;fillColor=#4D27AA;strokeColor=none;dashed=0;verticalLabelPosition=bottom;verticalAlign=top;align=center;html=1;fontSize=12;fontStyle=0;aspect=fixed;pointerEvents=1;shape=mxgraph.aws4.endpoints;" vertex="1" parent="1">
          <mxGeometry x="570" y="568" width="50" height="50" as="geometry" />
        </mxCell>
        <mxCell id="mLUr6H7fDkJ77cfX74YB-27" style="edgeStyle=orthogonalEdgeStyle;rounded=0;orthogonalLoop=1;jettySize=auto;html=1;strokeWidth=3;strokeColor=#5C5C5C;" edge="1" parent="1" source="mLUr6H7fDkJ77cfX74YB-13" target="mLUr6H7fDkJ77cfX74YB-21">
          <mxGeometry relative="1" as="geometry" />
        </mxCell>
        <mxCell id="mLUr6H7fDkJ77cfX74YB-13" value="VPCEndpoint" style="sketch=0;outlineConnect=0;fontColor=#232F3E;gradientColor=none;fillColor=#4D27AA;strokeColor=none;dashed=0;verticalLabelPosition=bottom;verticalAlign=top;align=center;html=1;fontSize=12;fontStyle=0;aspect=fixed;pointerEvents=1;shape=mxgraph.aws4.endpoints;" vertex="1" parent="1">
          <mxGeometry x="570" y="638" width="50" height="50" as="geometry" />
        </mxCell>
        <mxCell id="mLUr6H7fDkJ77cfX74YB-28" style="edgeStyle=orthogonalEdgeStyle;rounded=0;orthogonalLoop=1;jettySize=auto;html=1;strokeWidth=3;strokeColor=#5C5C5C;" edge="1" parent="1" source="mLUr6H7fDkJ77cfX74YB-14" target="mLUr6H7fDkJ77cfX74YB-23">
          <mxGeometry relative="1" as="geometry" />
        </mxCell>
        <mxCell id="mLUr6H7fDkJ77cfX74YB-14" value="VPCEndpoint" style="sketch=0;outlineConnect=0;fontColor=#232F3E;gradientColor=none;fillColor=#4D27AA;strokeColor=none;dashed=0;verticalLabelPosition=bottom;verticalAlign=top;align=center;html=1;fontSize=12;fontStyle=0;aspect=fixed;pointerEvents=1;shape=mxgraph.aws4.endpoints;" vertex="1" parent="1">
          <mxGeometry x="570" y="708" width="50" height="50" as="geometry" />
        </mxCell>
        <mxCell id="mLUr6H7fDkJ77cfX74YB-34" style="edgeStyle=orthogonalEdgeStyle;rounded=0;orthogonalLoop=1;jettySize=auto;html=1;entryX=1;entryY=0.75;entryDx=0;entryDy=0;entryPerimeter=0;fillColor=#f8cecc;strokeColor=#990000;strokeWidth=3;exitX=0;exitY=0.5;exitDx=0;exitDy=0;exitPerimeter=0;" edge="1" parent="1" source="mLUr6H7fDkJ77cfX74YB-15">
          <mxGeometry relative="1" as="geometry">
            <mxPoint x="354.38" y="935.3585714285715" as="sourcePoint" />
            <mxPoint x="202.38" y="607.83" as="targetPoint" />
            <Array as="points">
              <mxPoint x="234" y="899" />
              <mxPoint x="234" y="608" />
            </Array>
          </mxGeometry>
        </mxCell>
        <mxCell id="mLUr6H7fDkJ77cfX74YB-35" value="① ecs:RunTask" style="edgeLabel;html=1;align=center;verticalAlign=middle;resizable=0;points=[];labelBackgroundColor=default;" vertex="1" connectable="0" parent="mLUr6H7fDkJ77cfX74YB-34">
          <mxGeometry x="-0.0602" relative="1" as="geometry">
            <mxPoint x="19" y="-55" as="offset" />
          </mxGeometry>
        </mxCell>
        <mxCell id="mLUr6H7fDkJ77cfX74YB-15" value="Lambda" style="sketch=0;points=[[0,0,0],[0.25,0,0],[0.5,0,0],[0.75,0,0],[1,0,0],[0,1,0],[0.25,1,0],[0.5,1,0],[0.75,1,0],[1,1,0],[0,0.25,0],[0,0.5,0],[0,0.75,0],[1,0.25,0],[1,0.5,0],[1,0.75,0]];outlineConnect=0;fontColor=#232F3E;gradientColor=#F78E04;gradientDirection=north;fillColor=#D05C17;strokeColor=#ffffff;dashed=0;verticalLabelPosition=bottom;verticalAlign=top;align=center;html=1;fontSize=12;fontStyle=0;aspect=fixed;shape=mxgraph.aws4.resourceIcon;resIcon=mxgraph.aws4.lambda;" vertex="1" parent="1">
          <mxGeometry x="330" y="860" width="78" height="78" as="geometry" />
        </mxCell>
        <mxCell id="mLUr6H7fDkJ77cfX74YB-17" value="Role" style="sketch=0;outlineConnect=0;fontColor=#232F3E;gradientColor=none;fillColor=#BF0816;strokeColor=none;dashed=0;verticalLabelPosition=bottom;verticalAlign=top;align=center;html=1;fontSize=12;fontStyle=0;aspect=fixed;pointerEvents=1;shape=mxgraph.aws4.role;" vertex="1" parent="1">
          <mxGeometry x="394" y="890" width="78" height="44" as="geometry" />
        </mxCell>
        <mxCell id="mLUr6H7fDkJ77cfX74YB-20" value="ECR" style="sketch=0;points=[[0,0,0],[0.25,0,0],[0.5,0,0],[0.75,0,0],[1,0,0],[0,1,0],[0.25,1,0],[0.5,1,0],[0.75,1,0],[1,1,0],[0,0.25,0],[0,0.5,0],[0,0.75,0],[1,0.25,0],[1,0.5,0],[1,0.75,0]];outlineConnect=0;fontColor=#232F3E;gradientColor=#F78E04;gradientDirection=north;fillColor=#D05C17;strokeColor=#ffffff;dashed=0;verticalLabelPosition=bottom;verticalAlign=top;align=center;html=1;fontSize=12;fontStyle=0;aspect=fixed;shape=mxgraph.aws4.resourceIcon;resIcon=mxgraph.aws4.ecr;" vertex="1" parent="1">
          <mxGeometry x="880" y="520" width="78" height="78" as="geometry" />
        </mxCell>
        <mxCell id="mLUr6H7fDkJ77cfX74YB-21" value="Logs" style="sketch=0;outlineConnect=0;fontColor=#232F3E;gradientColor=none;fillColor=#B0084D;strokeColor=none;dashed=0;verticalLabelPosition=bottom;verticalAlign=top;align=center;html=1;fontSize=12;fontStyle=0;aspect=fixed;pointerEvents=1;shape=mxgraph.aws4.logs;" vertex="1" parent="1">
          <mxGeometry x="880" y="630" width="78" height="58" as="geometry" />
        </mxCell>
        <mxCell id="mLUr6H7fDkJ77cfX74YB-22" value="S3" style="sketch=0;points=[[0,0,0],[0.25,0,0],[0.5,0,0],[0.75,0,0],[1,0,0],[0,1,0],[0.25,1,0],[0.5,1,0],[0.75,1,0],[1,1,0],[0,0.25,0],[0,0.5,0],[0,0.75,0],[1,0.25,0],[1,0.5,0],[1,0.75,0]];outlineConnect=0;fontColor=#232F3E;gradientColor=#60A337;gradientDirection=north;fillColor=#277116;strokeColor=#ffffff;dashed=0;verticalLabelPosition=bottom;verticalAlign=top;align=center;html=1;fontSize=12;fontStyle=0;aspect=fixed;shape=mxgraph.aws4.resourceIcon;resIcon=mxgraph.aws4.s3;" vertex="1" parent="1">
          <mxGeometry x="880" y="415" width="78" height="78" as="geometry" />
        </mxCell>
        <mxCell id="mLUr6H7fDkJ77cfX74YB-23" value="SecretsManager" style="sketch=0;points=[[0,0,0],[0.25,0,0],[0.5,0,0],[0.75,0,0],[1,0,0],[0,1,0],[0.25,1,0],[0.5,1,0],[0.75,1,0],[1,1,0],[0,0.25,0],[0,0.5,0],[0,0.75,0],[1,0.25,0],[1,0.5,0],[1,0.75,0]];outlineConnect=0;fontColor=#232F3E;gradientColor=#F54749;gradientDirection=north;fillColor=#C7131F;strokeColor=#ffffff;dashed=0;verticalLabelPosition=bottom;verticalAlign=top;align=center;html=1;fontSize=12;fontStyle=0;aspect=fixed;shape=mxgraph.aws4.resourceIcon;resIcon=mxgraph.aws4.secrets_manager;" vertex="1" parent="1">
          <mxGeometry x="880" y="740" width="78" height="78" as="geometry" />
        </mxCell>
        <mxCell id="mLUr6H7fDkJ77cfX74YB-52" style="edgeStyle=orthogonalEdgeStyle;rounded=0;orthogonalLoop=1;jettySize=auto;html=1;strokeColor=#2930FF;strokeWidth=3;" edge="1" parent="1" source="mLUr6H7fDkJ77cfX74YB-10" target="mLUr6H7fDkJ77cfX74YB-1">
          <mxGeometry relative="1" as="geometry">
            <Array as="points">
              <mxPoint x="504" y="416" />
              <mxPoint x="504" y="390" />
              <mxPoint x="725" y="390" />
            </Array>
          </mxGeometry>
        </mxCell>
        <mxCell id="mLUr6H7fDkJ77cfX74YB-53" value="④ Docker&amp;gt; aws s3 ls" style="edgeLabel;html=1;align=center;verticalAlign=middle;resizable=0;points=[];" vertex="1" connectable="0" parent="mLUr6H7fDkJ77cfX74YB-52">
          <mxGeometry x="-0.6027" y="4" relative="1" as="geometry">
            <mxPoint as="offset" />
          </mxGeometry>
        </mxCell>
        <mxCell id="mLUr6H7fDkJ77cfX74YB-54" value="" style="rounded=0;whiteSpace=wrap;html=1;fillColor=none;strokeWidth=5;strokeColor=#CCCCCC;glass=1;" vertex="1" parent="1">
          <mxGeometry x="110" y="250" width="430" height="730" as="geometry" />
        </mxCell>
        <mxCell id="mLUr6H7fDkJ77cfX74YB-57" value="RouteTable" style="sketch=0;outlineConnect=0;fontColor=#232F3E;gradientColor=none;fillColor=#47226d;strokeColor=none;dashed=0;verticalLabelPosition=bottom;verticalAlign=top;align=center;html=1;fontSize=12;fontStyle=0;aspect=fixed;pointerEvents=1;shape=mxgraph.aws4.table;" vertex="1" parent="1">
          <mxGeometry x="740" y="380" width="44" height="44" as="geometry" />
        </mxCell>
        <mxCell id="mLUr6H7fDkJ77cfX74YB-59" value="" style="rounded=0;whiteSpace=wrap;html=1;fillColor=none;strokeWidth=5;strokeColor=#CCCCCC;glass=1;" vertex="1" parent="1">
          <mxGeometry x="550" y="250" width="260" height="730" as="geometry" />
        </mxCell>
        <mxCell id="mLUr6H7fDkJ77cfX74YB-60" value="Stack 1" style="text;html=1;align=center;verticalAlign=middle;resizable=0;points=[];autosize=1;strokeColor=none;fillColor=none;fontStyle=1;fontSize=17;" vertex="1" parent="1">
          <mxGeometry x="285" y="980" width="80" height="30" as="geometry" />
        </mxCell>
        <mxCell id="mLUr6H7fDkJ77cfX74YB-61" value="Stack 2" style="text;html=1;align=center;verticalAlign=middle;resizable=0;points=[];autosize=1;strokeColor=none;fillColor=none;fontStyle=1;fontSize=17;" vertex="1" parent="1">
          <mxGeometry x="640" y="980" width="80" height="30" as="geometry" />
        </mxCell>
      </root>
    </mxGraphModel>
  </diagram>
</mxfile>
